<svg width="60" height="47" viewBox="0 0 60 47" fill="none" xmlns="http://www.w3.org/2000/svg">
<rect width="60" height="47" rx="1.30435" fill="#282A38"/>
<rect x="49.5664" y="40.4722" width="7.82609" height="3.91667" fill="white"/>
<rect x="49.5664" y="2.61108" width="7.82609" height="3.91667" fill="white"/>
<rect x="37.8301" y="40.4722" width="7.82609" height="3.91667" fill="white"/>
<rect x="37.8301" y="2.61108" width="7.82609" height="3.91667" fill="white"/>
<rect x="26.0918" y="40.4722" width="7.82609" height="3.91667" fill="white"/>
<rect x="26.0918" y="2.61108" width="7.82609" height="3.91667" fill="white"/>
<rect x="14.3496" y="40.4722" width="7.82609" height="3.91667" fill="white"/>
<rect x="14.3496" y="2.61108" width="7.82609" height="3.91667" fill="white"/>
<rect x="2.61133" y="40.4722" width="7.82609" height="3.91667" fill="white"/>
<rect x="2.61133" y="2.61108" width="7.82609" height="3.91667" fill="white"/>
<g filter="url(#filter0_i_51_805)">
<path d="M28.4137 12.4259L24.8032 27.1389H19.7737L17.7493 18.1233L15.6832 27.1389H10.6537L7.08496 12.4259H11.5093L13.2206 22.485L15.5371 12.4259H20.0241L22.278 22.4015L23.9893 12.4259H28.4137ZM41.2312 12.4259V15.6815H37.3077V27.1389H33.2172V15.6815H29.3355V12.4259H41.2312ZM52.7202 12.4259V15.6815H46.835V18.2694H51.1758V21.3789H46.835V27.1389H42.7445V12.4259H52.7202Z" fill="#F0345C"/>
</g>
<path d="M13.2849 32.4148L12.2283 36.0278H11.2436L10.5849 33.5039L9.92617 36.0278H8.93487L7.87182 32.4148H8.79791L9.43704 35.167L10.1283 32.4148H11.0936L11.7718 35.1604L12.411 32.4148H13.2849ZM15.8137 32.3626C16.0876 32.3626 16.3311 32.4235 16.5441 32.5452C16.7571 32.6626 16.9224 32.8387 17.0398 33.0735C17.1615 33.3039 17.2224 33.5822 17.2224 33.9083V36.0278H16.3093V34.0322C16.3093 33.7452 16.2376 33.5257 16.0941 33.3735C15.9506 33.217 15.755 33.1387 15.5071 33.1387C15.255 33.1387 15.055 33.217 14.9071 33.3735C14.7637 33.5257 14.6919 33.7452 14.6919 34.0322V36.0278H13.7789V31.2017H14.6919V32.8648C14.8093 32.7083 14.9658 32.5865 15.1615 32.4996C15.3571 32.4083 15.5745 32.3626 15.8137 32.3626ZM17.8558 34.2083C17.8558 33.843 17.9276 33.5191 18.0711 33.2365C18.2189 32.9539 18.4167 32.7365 18.6645 32.5844C18.9167 32.4322 19.1971 32.3561 19.5058 32.3561C19.7754 32.3561 20.0102 32.4104 20.2102 32.5191C20.4145 32.6278 20.5776 32.7648 20.6993 32.93V32.4148H21.6189V36.0278H20.6993V35.4996C20.5819 35.6691 20.4189 35.8104 20.2102 35.9235C20.0058 36.0322 19.7689 36.0865 19.4993 36.0865C19.195 36.0865 18.9167 36.0083 18.6645 35.8517C18.4167 35.6952 18.2189 35.4757 18.0711 35.193C17.9276 34.9061 17.8558 34.5778 17.8558 34.2083ZM20.6993 34.2213C20.6993 33.9996 20.6558 33.8104 20.5689 33.6539C20.4819 33.493 20.3645 33.3713 20.2167 33.2887C20.0689 33.2017 19.9102 33.1583 19.7406 33.1583C19.5711 33.1583 19.4145 33.1996 19.2711 33.2822C19.1276 33.3648 19.0102 33.4865 18.9189 33.6474C18.8319 33.8039 18.7885 33.9909 18.7885 34.2083C18.7885 34.4257 18.8319 34.617 18.9189 34.7822C19.0102 34.943 19.1276 35.067 19.2711 35.1539C19.4189 35.2409 19.5754 35.2844 19.7406 35.2844C19.9102 35.2844 20.0689 35.243 20.2167 35.1604C20.3645 35.0735 20.4819 34.9517 20.5689 34.7952C20.6558 34.6344 20.6993 34.443 20.6993 34.2213ZM23.5737 33.1648V34.9126C23.5737 35.0344 23.6019 35.1235 23.6585 35.18C23.7193 35.2322 23.8193 35.2583 23.9585 35.2583H24.3824V36.0278H23.8085C23.0389 36.0278 22.6541 35.6539 22.6541 34.9061V33.1648H22.2237V32.4148H22.6541V31.5213H23.5737V32.4148H24.3824V33.1648H23.5737ZM27.6561 33.1648V34.9126C27.6561 35.0344 27.6844 35.1235 27.7409 35.18C27.8018 35.2322 27.9018 35.2583 28.0409 35.2583H28.4648V36.0278H27.8909C27.1213 36.0278 26.7366 35.6539 26.7366 34.9061V33.1648H26.3061V32.4148H26.7366V31.5213H27.6561V32.4148H28.4648V33.1648H27.6561ZM31.1563 32.3626C31.4302 32.3626 31.6737 32.4235 31.8868 32.5452C32.0998 32.6626 32.265 32.8387 32.3824 33.0735C32.5041 33.3039 32.565 33.5822 32.565 33.9083V36.0278H31.652V34.0322C31.652 33.7452 31.5802 33.5257 31.4368 33.3735C31.2933 33.217 31.0976 33.1387 30.8498 33.1387C30.5976 33.1387 30.3976 33.217 30.2498 33.3735C30.1063 33.5257 30.0346 33.7452 30.0346 34.0322V36.0278H29.1215V31.2017H30.0346V32.8648C30.152 32.7083 30.3085 32.5865 30.5041 32.4996C30.6998 32.4083 30.9172 32.3626 31.1563 32.3626ZM36.792 34.143C36.792 34.2735 36.7833 34.3909 36.7659 34.4952H34.1246C34.1463 34.7561 34.2376 34.9604 34.3985 35.1083C34.5594 35.2561 34.7572 35.33 34.992 35.33C35.3311 35.33 35.5724 35.1844 35.7159 34.893H36.7007C36.5963 35.2409 36.3963 35.5278 36.1007 35.7539C35.805 35.9757 35.442 36.0865 35.0115 36.0865C34.6637 36.0865 34.3507 36.0104 34.0724 35.8583C33.7985 35.7017 33.5833 35.4822 33.4267 35.1996C33.2746 34.917 33.1985 34.5909 33.1985 34.2213C33.1985 33.8474 33.2746 33.5191 33.4267 33.2365C33.5789 32.9539 33.792 32.7365 34.0659 32.5844C34.3398 32.4322 34.655 32.3561 35.0115 32.3561C35.355 32.3561 35.6615 32.43 35.9311 32.5778C36.205 32.7257 36.4159 32.9365 36.5637 33.2104C36.7159 33.48 36.792 33.7909 36.792 34.143ZM35.8463 33.8822C35.842 33.6474 35.7572 33.4604 35.592 33.3213C35.4267 33.1778 35.2246 33.1061 34.9854 33.1061C34.7594 33.1061 34.5681 33.1757 34.4115 33.3148C34.2594 33.4496 34.1659 33.6387 34.1311 33.8822H35.8463ZM40.6689 33.1648H40.0363V36.0278H39.1102V33.1648H38.6994V32.4148H39.1102V32.2322C39.1102 31.7887 39.2363 31.4626 39.4885 31.2539C39.7407 31.0452 40.1211 30.9474 40.6298 30.9604V31.73C40.4081 31.7257 40.2537 31.7626 40.1668 31.8409C40.0798 31.9191 40.0363 32.0604 40.0363 32.2648V32.4148H40.6689V33.1648ZM41.7237 31.9844C41.5628 31.9844 41.428 31.9344 41.3193 31.8344C41.215 31.73 41.1628 31.6017 41.1628 31.4496C41.1628 31.2974 41.215 31.1713 41.3193 31.0713C41.428 30.967 41.5628 30.9148 41.7237 30.9148C41.8845 30.9148 42.0171 30.967 42.1215 31.0713C42.2302 31.1713 42.2845 31.2974 42.2845 31.4496C42.2845 31.6017 42.2302 31.73 42.1215 31.8344C42.0171 31.9344 41.8845 31.9844 41.7237 31.9844ZM42.1737 32.4148V36.0278H41.2606V32.4148H42.1737ZM43.9888 31.2017V36.0278H43.0758V31.2017H43.9888ZM49.3778 32.3626C49.8213 32.3626 50.1778 32.4996 50.4474 32.7735C50.7213 33.043 50.8583 33.4213 50.8583 33.9083V36.0278H49.9452V34.0322C49.9452 33.7496 49.8735 33.5344 49.73 33.3865C49.5865 33.2344 49.3909 33.1583 49.1431 33.1583C48.8952 33.1583 48.6974 33.2344 48.5496 33.3865C48.4061 33.5344 48.3344 33.7496 48.3344 34.0322V36.0278H47.4213V34.0322C47.4213 33.7496 47.3496 33.5344 47.2061 33.3865C47.0626 33.2344 46.867 33.1583 46.6192 33.1583C46.367 33.1583 46.167 33.2344 46.0192 33.3865C45.8757 33.5344 45.8039 33.7496 45.8039 34.0322V36.0278H44.8909V32.4148H45.8039V32.8517C45.9213 32.6996 46.0713 32.58 46.2539 32.493C46.4409 32.4061 46.6452 32.3626 46.867 32.3626C47.1496 32.3626 47.4018 32.4235 47.6235 32.5452C47.8452 32.6626 48.017 32.8322 48.1387 33.0539C48.2561 32.8452 48.4257 32.6778 48.6474 32.5517C48.8735 32.4257 49.117 32.3626 49.3778 32.3626Z" fill="white"/>
<defs>
<filter id="filter0_i_51_805" x="7.08594" y="12.4259" width="45.6348" height="19.9304" filterUnits="userSpaceOnUse" color-interpolation-filters="sRGB">
<feFlood flood-opacity="0" result="BackgroundImageFix"/>
<feBlend mode="normal" in="SourceGraphic" in2="BackgroundImageFix" result="shape"/>
<feColorMatrix in="SourceAlpha" type="matrix" values="0 0 0 0 0 0 0 0 0 0 0 0 0 0 0 0 0 0 127 0" result="hardAlpha"/>
<feOffset dy="5.21739"/>
<feGaussianBlur stdDeviation="2.6087"/>
<feComposite in2="hardAlpha" operator="arithmetic" k2="-1" k3="1"/>
<feColorMatrix type="matrix" values="0 0 0 0 0.156863 0 0 0 0 0.164706 0 0 0 0 0.219608 0 0 0 0.25 0"/>
<feBlend mode="normal" in2="shape" result="effect1_innerShadow_51_805"/>
</filter>
</defs>
</svg>
