<svg width="26" height="25" viewBox="0 0 26 25" fill="none" xmlns="http://www.w3.org/2000/svg">
<path d="M12.0633 1.50494C12.3873 0.638598 13.6127 0.638597 13.9367 1.50494L16.4712 8.28328C16.6118 8.65912 16.9634 8.91457 17.3643 8.93208L24.5941 9.248C25.5181 9.28838 25.8968 10.4538 25.1729 11.0296L19.5096 15.5348C19.1956 15.7846 19.0613 16.1979 19.1685 16.5846L21.1022 23.5582C21.3493 24.4495 20.3579 25.1697 19.5866 24.6593L13.5519 20.6653C13.2173 20.4438 12.7827 20.4438 12.4481 20.6653L6.41336 24.6593C5.64206 25.1697 4.65067 24.4495 4.89782 23.5582L6.8315 16.5846C6.93872 16.1979 6.80442 15.7846 6.4904 15.5348L0.827052 11.0296C0.103213 10.4538 0.481889 9.28838 1.40594 9.248L8.63575 8.93209C9.03663 8.91457 9.38822 8.65912 9.52875 8.28328L12.0633 1.50494Z" fill="#FFA41B"/>
</svg>
