<svg width="30" height="30" viewBox="0 0 30 30" fill="none" xmlns="http://www.w3.org/2000/svg">
<rect x="6" y="5" width="19" height="19" fill="white"/>
<path d="M15 30C12.9688 30 11.0254 29.6045 9.16992 28.8135C7.31445 28.0225 5.71777 26.958 4.37988 25.6201C3.04199 24.2822 1.97754 22.6855 1.18652 20.8301C0.395508 18.9746 0 17.0312 0 15C0 12.9688 0.395508 11.0254 1.18652 9.16992C1.97754 7.31445 3.04199 5.71777 4.37988 4.37988C5.71777 3.04199 7.31445 1.97754 9.16992 1.18652C11.0254 0.395508 12.9688 0 15 0C17.0312 0 18.9746 0.395508 20.8301 1.18652C22.6855 1.97754 24.2822 3.04199 25.6201 4.37988C26.958 5.71777 28.0225 7.31445 28.8135 9.16992C29.6045 11.0254 30 12.9688 30 15C30 17.0312 29.6045 18.9746 28.8135 20.8301C28.0225 22.6855 26.958 24.2822 25.6201 25.6201C24.2822 26.958 22.6855 28.0225 20.8301 28.8135C18.9746 29.6045 17.0312 30 15 30ZM23.8184 7.5C23.7012 7.55859 23.5254 7.66602 23.291 7.82227L22.7197 8.20312L22.1777 8.49609L21.5625 8.70117C20.8398 7.90039 19.9512 7.5 18.8965 7.5C16.6113 7.5 15.4688 8.45703 15.4688 10.3711V12.0996C12.3242 11.9434 9.91211 10.791 8.23242 8.64258C7.74414 9.15039 7.5 9.70703 7.5 10.3125C7.5 11.6016 7.97852 12.5781 8.93555 13.2422C8.81836 13.2422 8.65234 13.252 8.4375 13.2715C8.22266 13.291 8.05176 13.291 7.9248 13.2715C7.79785 13.252 7.65625 13.2031 7.5 13.125C7.5 14.0234 7.73926 14.7705 8.21777 15.3662C8.69629 15.9619 9.35547 16.3477 10.1953 16.5234C10 16.7578 9.72656 16.875 9.375 16.875C9.0625 16.875 8.78906 16.7871 8.55469 16.6113C8.55469 17.373 8.9209 17.9639 9.65332 18.3838C10.3857 18.8037 11.2109 19.0234 12.1289 19.043C11.7773 19.5703 11.2646 19.9658 10.5908 20.2295C9.91699 20.4932 9.19922 20.625 8.4375 20.625C8.16406 20.625 7.78809 20.5566 7.30957 20.4199C6.83105 20.2832 6.58203 20.2148 6.5625 20.2148C6.875 20.8398 7.51465 21.377 8.48145 21.8262C9.44824 22.2754 10.6738 22.5 12.1582 22.5C13.4668 22.5 14.6875 22.2705 15.8203 21.8115C16.9531 21.3525 17.9199 20.7422 18.7207 19.9805C19.5215 19.2188 20.21 18.3496 20.7861 17.373C21.3623 16.3965 21.792 15.3857 22.0752 14.3408C22.3584 13.2959 22.5 12.2656 22.5 11.25C22.5 11.2109 22.6172 11.1279 22.8516 11.001C23.0859 10.874 23.3594 10.7031 23.6719 10.4883C23.9844 10.2734 24.2188 10.0488 24.375 9.81445C23.3203 9.81445 22.6172 9.83398 22.2656 9.87305C22.9492 9.46289 23.4668 8.67188 23.8184 7.5Z" fill="#282A38"/>
</svg>
